<?xml version="1.0" encoding="UTF-8"?>
<svg width="700pt" height="700pt" version="1.1" viewBox="0 0 700 700" xmlns="http://www.w3.org/2000/svg" xmlns:xlink="http://www.w3.org/1999/xlink">
 <defs>
  <symbol id="u" overflow="visible">
   <path d="m18.766-1.125c-0.96875 0.5-1.9805 0.875-3.0312 1.125-1.043 0.25781-2.1367 0.39062-3.2812 0.39062-3.3984 0-6.0898-0.94531-8.0781-2.8438-1.9922-1.9062-2.9844-4.4844-2.9844-7.7344 0-3.2578 0.99219-5.8359 2.9844-7.7344 1.9883-1.9062 4.6797-2.8594 8.0781-2.8594 1.1445 0 2.2383 0.13281 3.2812 0.39062 1.0508 0.25 2.0625 0.625 3.0312 1.125v4.2188c-0.98047-0.65625-1.9453-1.1406-2.8906-1.4531-0.94922-0.3125-1.9492-0.46875-3-0.46875-1.875 0-3.3516 0.60547-4.4219 1.8125-1.0742 1.1992-1.6094 2.8555-1.6094 4.9688 0 2.1055 0.53516 3.7617 1.6094 4.9688 1.0703 1.1992 2.5469 1.7969 4.4219 1.7969 1.0508 0 2.0508-0.14844 3-0.45312 0.94531-0.3125 1.9102-0.80078 2.8906-1.4688z"/>
  </symbol>
  <symbol id="d" overflow="visible">
   <path d="m13.734-11.141c-0.4375-0.19531-0.87109-0.34375-1.2969-0.4375-0.41797-0.10156-0.83984-0.15625-1.2656-0.15625-1.2617 0-2.2305 0.40625-2.9062 1.2188-0.67969 0.80469-1.0156 1.9531-1.0156 3.4531v7.0625h-4.8906v-15.312h4.8906v2.5156c0.625-1 1.3438-1.7266 2.1562-2.1875 0.82031-0.46875 1.8008-0.70312 2.9375-0.70312 0.16406 0 0.34375 0.011719 0.53125 0.03125 0.19531 0.011719 0.47656 0.039062 0.84375 0.078125z"/>
  </symbol>
  <symbol id="b" overflow="visible">
   <path d="m17.641-7.7031v1.4062h-11.453c0.125 1.1484 0.53906 2.0078 1.25 2.5781 0.70703 0.57422 1.7031 0.85938 2.9844 0.85938 1.0312 0 2.082-0.14844 3.1562-0.45312 1.082-0.3125 2.1914-0.77344 3.3281-1.3906v3.7656c-1.1562 0.4375-2.3125 0.76562-3.4688 0.98438-1.1562 0.22656-2.3125 0.34375-3.4688 0.34375-2.7734 0-4.9297-0.70312-6.4688-2.1094-1.5312-1.4062-2.2969-3.3789-2.2969-5.9219 0-2.5 0.75391-4.4609 2.2656-5.8906 1.5078-1.4375 3.582-2.1562 6.2188-2.1562 2.4062 0 4.332 0.73047 5.7812 2.1875 1.4453 1.4492 2.1719 3.3828 2.1719 5.7969zm-5.0312-1.625c0-0.92578-0.27344-1.6719-0.8125-2.2344-0.54297-0.57031-1.25-0.85938-2.125-0.85938-0.94922 0-1.7188 0.26562-2.3125 0.79688s-0.96484 1.2969-1.1094 2.2969z"/>
  </symbol>
  <symbol id="c" overflow="visible">
   <path d="m9.2188-6.8906c-1.0234 0-1.793 0.17188-2.3125 0.51562-0.51172 0.34375-0.76562 0.85547-0.76562 1.5312 0 0.625 0.20703 1.1172 0.625 1.4688 0.41406 0.34375 0.98828 0.51562 1.7188 0.51562 0.92578 0 1.7031-0.32812 2.3281-0.98438 0.63281-0.66406 0.95312-1.4922 0.95312-2.4844v-0.5625zm7.4688-1.8438v8.7344h-4.9219v-2.2656c-0.65625 0.92969-1.3984 1.6055-2.2188 2.0312-0.82422 0.41406-1.8242 0.625-3 0.625-1.5859 0-2.8711-0.45703-3.8594-1.375-0.99219-0.92578-1.4844-2.1289-1.4844-3.6094 0-1.7891 0.61328-3.1016 1.8438-3.9375 1.2383-0.84375 3.1797-1.2656 5.8281-1.2656h2.8906v-0.39062c0-0.76953-0.30859-1.332-0.92188-1.6875-0.61719-0.36328-1.5703-0.54688-2.8594-0.54688-1.0547 0-2.0312 0.10547-2.9375 0.3125-0.89844 0.21094-1.7305 0.52344-2.5 0.9375v-3.7344c1.0391-0.25 2.0859-0.44141 3.1406-0.57812 1.0625-0.13281 2.125-0.20312 3.1875-0.20312 2.7578 0 4.75 0.54688 5.9688 1.6406 1.2266 1.0859 1.8438 2.8555 1.8438 5.3125z"/>
  </symbol>
  <symbol id="a" overflow="visible">
   <path d="m7.7031-19.656v4.3438h5.0469v3.5h-5.0469v6.5c0 0.71094 0.14062 1.1875 0.42188 1.4375s0.83594 0.375 1.6719 0.375h2.5156v3.5h-4.1875c-1.9375 0-3.3125-0.39844-4.125-1.2031-0.80469-0.8125-1.2031-2.1797-1.2031-4.1094v-6.5h-2.4219v-3.5h2.4219v-4.3438z"/>
  </symbol>
  <symbol id="l" overflow="visible">
   <path d="m12.766-13.078v-8.2031h4.9219v21.281h-4.9219v-2.2188c-0.66797 0.90625-1.4062 1.5703-2.2188 1.9844s-1.7578 0.625-2.8281 0.625c-1.8867 0-3.4336-0.75-4.6406-2.25-1.2109-1.5-1.8125-3.4258-1.8125-5.7812 0-2.3633 0.60156-4.2969 1.8125-5.7969 1.207-1.5 2.7539-2.25 4.6406-2.25 1.0625 0 2 0.21484 2.8125 0.64062 0.82031 0.42969 1.5664 1.0859 2.2344 1.9688zm-3.2188 9.9219c1.0391 0 1.8359-0.37891 2.3906-1.1406 0.55078-0.76953 0.82812-1.8828 0.82812-3.3438 0-1.457-0.27734-2.5664-0.82812-3.3281-0.55469-0.76953-1.3516-1.1562-2.3906-1.1562-1.043 0-1.8398 0.38672-2.3906 1.1562-0.55469 0.76172-0.82812 1.8711-0.82812 3.3281 0 1.4609 0.27344 2.5742 0.82812 3.3438 0.55078 0.76172 1.3477 1.1406 2.3906 1.1406z"/>
  </symbol>
  <symbol id="k" overflow="visible">
   <path d="m10.5-3.1562c1.0508 0 1.8516-0.37891 2.4062-1.1406 0.55078-0.76953 0.82812-1.8828 0.82812-3.3438 0-1.457-0.27734-2.5664-0.82812-3.3281-0.55469-0.76953-1.3555-1.1562-2.4062-1.1562-1.0547 0-1.8594 0.38672-2.4219 1.1562-0.55469 0.77344-0.82812 1.8828-0.82812 3.3281 0 1.4492 0.27344 2.5586 0.82812 3.3281 0.5625 0.77344 1.3672 1.1562 2.4219 1.1562zm-3.25-9.9219c0.67578-0.88281 1.4219-1.5391 2.2344-1.9688 0.82031-0.42578 1.7656-0.64062 2.8281-0.64062 1.8945 0 3.4453 0.75 4.6562 2.25 1.207 1.5 1.8125 3.4336 1.8125 5.7969 0 2.3555-0.60547 4.2812-1.8125 5.7812-1.2109 1.5-2.7617 2.25-4.6562 2.25-1.0625 0-2.0078-0.21094-2.8281-0.625-0.8125-0.42578-1.5586-1.0859-2.2344-1.9844v2.2188h-4.8906v-21.281h4.8906z"/>
  </symbol>
  <symbol id="j" overflow="visible">
   <path d="m0.34375-15.312h4.8906l4.125 10.391 3.5-10.391h4.8906l-6.4375 16.766c-0.64844 1.6953-1.4023 2.8828-2.2656 3.5625-0.86719 0.6875-2 1.0312-3.4062 1.0312h-2.8438v-3.2188h1.5312c0.83203 0 1.4375-0.13672 1.8125-0.40625 0.38281-0.26172 0.67969-0.73047 0.89062-1.4062l0.14062-0.42188z"/>
  </symbol>
  <symbol id="h" overflow="visible">
   <path d="m2.3594-15.312h4.8906v15.312h-4.8906zm0-5.9688h4.8906v4h-4.8906z"/>
  </symbol>
  <symbol id="g" overflow="visible">
   <path d="m17.75-9.3281v9.3281h-4.9219v-7.1406c0-1.3203-0.03125-2.2344-0.09375-2.7344s-0.16797-0.86719-0.3125-1.1094c-0.1875-0.3125-0.44922-0.55469-0.78125-0.73438-0.32422-0.17578-0.69531-0.26562-1.1094-0.26562-1.0234 0-1.8242 0.39844-2.4062 1.1875-0.58594 0.78125-0.875 1.8711-0.875 3.2656v7.5312h-4.8906v-15.312h4.8906v2.2344c0.73828-0.88281 1.5195-1.5391 2.3438-1.9688 0.83203-0.42578 1.75-0.64062 2.75-0.64062 1.7695 0 3.1133 0.54688 4.0312 1.6406 0.91406 1.0859 1.375 2.6562 1.375 4.7188z"/>
  </symbol>
  <symbol id="f" overflow="visible">
   <path d="m2.1875-5.9688v-9.3438h4.9219v1.5312c0 0.83594-0.007813 1.875-0.015625 3.125-0.011719 1.25-0.015625 2.0859-0.015625 2.5 0 1.2422 0.03125 2.1328 0.09375 2.6719 0.070313 0.54297 0.17969 0.93359 0.32812 1.1719 0.20703 0.32422 0.47266 0.57422 0.79688 0.75 0.32031 0.16797 0.69141 0.25 1.1094 0.25 1.0195 0 1.8203-0.39062 2.4062-1.1719 0.58203-0.78125 0.875-1.8672 0.875-3.2656v-7.5625h4.8906v15.312h-4.8906v-2.2188c-0.74219 0.89844-1.5234 1.5586-2.3438 1.9844-0.82422 0.41406-1.7344 0.625-2.7344 0.625-1.7617 0-3.1055-0.53906-4.0312-1.625-0.92969-1.082-1.3906-2.6602-1.3906-4.7344z"/>
  </symbol>
  <symbol id="t" overflow="visible">
   <path d="m2.3594-21.281h4.8906v21.281h-4.8906z"/>
  </symbol>
  <symbol id="i" overflow="visible">
   <path d="m16.547-12.766c0.61328-0.94531 1.3477-1.6719 2.2031-2.1719 0.85156-0.5 1.7891-0.75 2.8125-0.75 1.7578 0 3.0977 0.54688 4.0156 1.6406 0.92578 1.0859 1.3906 2.6562 1.3906 4.7188v9.3281h-4.9219v-7.9844-0.35938c0.007813-0.13281 0.015625-0.32031 0.015625-0.5625 0-1.082-0.16406-1.8633-0.48438-2.3438-0.3125-0.48828-0.82422-0.73438-1.5312-0.73438-0.92969 0-1.6484 0.38672-2.1562 1.1562-0.51172 0.76172-0.77344 1.8672-0.78125 3.3125v7.5156h-4.9219v-7.9844c0-1.6953-0.14844-2.7852-0.4375-3.2656-0.29297-0.48828-0.8125-0.73438-1.5625-0.73438-0.9375 0-1.6641 0.38672-2.1719 1.1562-0.51172 0.76172-0.76562 1.8594-0.76562 3.2969v7.5312h-4.9219v-15.312h4.9219v2.2344c0.60156-0.86328 1.2891-1.5156 2.0625-1.9531 0.78125-0.4375 1.6406-0.65625 2.5781-0.65625 1.0625 0 2 0.25781 2.8125 0.76562 0.8125 0.51172 1.4258 1.2305 1.8438 2.1562z"/>
  </symbol>
  <symbol id="s" overflow="visible">
   <path d="m9.5469-12.125c-1.043 0-1.8398 0.38672-2.3906 1.1562-0.55469 0.76172-0.82812 1.8711-0.82812 3.3281 0 1.4609 0.27344 2.5742 0.82812 3.3438 0.55078 0.76172 1.3477 1.1406 2.3906 1.1406 1.0391 0 1.8359-0.37891 2.3906-1.1406 0.55078-0.76953 0.82812-1.8828 0.82812-3.3438 0-1.457-0.27734-2.5664-0.82812-3.3281-0.55469-0.76953-1.3516-1.1562-2.3906-1.1562zm3.2188 9.9062c-0.66797 0.90625-1.4062 1.5703-2.2188 1.9844s-1.7578 0.625-2.8281 0.625c-1.8867 0-3.4336-0.75-4.6406-2.25-1.2109-1.5-1.8125-3.4258-1.8125-5.7812 0-2.3633 0.60156-4.2891 1.8125-5.7812 1.207-1.4883 2.7539-2.2344 4.6406-2.2344 1.0703 0 2.0156 0.21484 2.8281 0.64062 0.8125 0.41797 1.5508 1.0742 2.2188 1.9688v-2.2656h4.9219v21.141h-4.9219z"/>
  </symbol>
  <symbol id="r" overflow="visible">
   <path d="m12.422-21.281v3.2188h-2.7031c-0.6875 0-1.1719 0.125-1.4531 0.375-0.27344 0.25-0.40625 0.6875-0.40625 1.3125v1.0625h4.1875v3.5h-4.1875v11.812h-4.8906v-11.812h-2.4375v-3.5h2.4375v-1.0625c0-1.6641 0.46094-2.8984 1.3906-3.7031 0.92578-0.80078 2.3672-1.2031 4.3281-1.2031z"/>
  </symbol>
  <symbol id="e" overflow="visible">
   <path d="m9.6406-12.188c-1.0859 0-1.9141 0.39062-2.4844 1.1719-0.57422 0.78125-0.85938 1.9062-0.85938 3.375s0.28516 2.5938 0.85938 3.375c0.57031 0.77344 1.3984 1.1562 2.4844 1.1562 1.0625 0 1.875-0.38281 2.4375-1.1562 0.57031-0.78125 0.85938-1.9062 0.85938-3.375s-0.28906-2.5938-0.85938-3.375c-0.5625-0.78125-1.375-1.1719-2.4375-1.1719zm0-3.5c2.6328 0 4.6914 0.71484 6.1719 2.1406 1.4766 1.418 2.2188 3.3867 2.2188 5.9062 0 2.5117-0.74219 4.4805-2.2188 5.9062-1.4805 1.418-3.5391 2.125-6.1719 2.125-2.6484 0-4.7148-0.70703-6.2031-2.125-1.4922-1.4258-2.2344-3.3945-2.2344-5.9062 0-2.5195 0.74219-4.4883 2.2344-5.9062 1.4883-1.4258 3.5547-2.1406 6.2031-2.1406z"/>
  </symbol>
  <symbol id="q" overflow="visible">
   <path d="m17.75-9.3281v9.3281h-4.9219v-7.1094c0-1.3438-0.03125-2.2656-0.09375-2.7656s-0.16797-0.86719-0.3125-1.1094c-0.1875-0.3125-0.44922-0.55469-0.78125-0.73438-0.32422-0.17578-0.69531-0.26562-1.1094-0.26562-1.0234 0-1.8242 0.39844-2.4062 1.1875-0.58594 0.78125-0.875 1.8711-0.875 3.2656v7.5312h-4.8906v-21.281h4.8906v8.2031c0.73828-0.88281 1.5195-1.5391 2.3438-1.9688 0.83203-0.42578 1.75-0.64062 2.75-0.64062 1.7695 0 3.1133 0.54688 4.0312 1.6406 0.91406 1.0859 1.375 2.6562 1.375 4.7188z"/>
  </symbol>
  <symbol id="p" overflow="visible">
   <path d="m2.5781-20.406h5.875l7.4219 14v-14h4.9844v20.406h-5.875l-7.4219-14v14h-4.9844z"/>
  </symbol>
  <symbol id="o" overflow="visible">
   <path d="m2.5781-20.406h8.7344c2.5938 0 4.582 0.57812 5.9688 1.7344 1.3945 1.1484 2.0938 2.7891 2.0938 4.9219 0 2.1367-0.69922 3.7812-2.0938 4.9375-1.3867 1.1562-3.375 1.7344-5.9688 1.7344h-3.4844v7.0781h-5.25zm5.25 3.8125v5.7031h2.9219c1.0195 0 1.8047-0.25 2.3594-0.75 0.5625-0.5 0.84375-1.2031 0.84375-2.1094 0-0.91406-0.28125-1.6172-0.84375-2.1094-0.55469-0.48828-1.3398-0.73438-2.3594-0.73438z"/>
  </symbol>
  <symbol id="n" overflow="visible">
   <path d="m2.3594-15.312h4.8906v15.031c0 2.0508-0.49609 3.6172-1.4844 4.7031-0.98047 1.082-2.4062 1.625-4.2812 1.625h-2.4219v-3.2188h0.85938c0.92578 0 1.5625-0.21094 1.9062-0.625 0.35156-0.41797 0.53125-1.2461 0.53125-2.4844zm0-5.9688h4.8906v4h-4.8906z"/>
  </symbol>
  <symbol id="m" overflow="visible">
   <path d="m14.719-14.828v3.9844c-0.65625-0.45703-1.3242-0.79688-2-1.0156-0.66797-0.21875-1.3594-0.32812-2.0781-0.32812-1.3672 0-2.4336 0.40234-3.2031 1.2031-0.76172 0.79297-1.1406 1.9062-1.1406 3.3438 0 1.4297 0.37891 2.543 1.1406 3.3438 0.76953 0.79297 1.8359 1.1875 3.2031 1.1875 0.75781 0 1.4844-0.10938 2.1719-0.32812 0.6875-0.22656 1.3203-0.56641 1.9062-1.0156v4c-0.76172 0.28125-1.5391 0.48828-2.3281 0.625-0.78125 0.14453-1.5742 0.21875-2.375 0.21875-2.7617 0-4.9219-0.70703-6.4844-2.125-1.5547-1.4141-2.3281-3.3828-2.3281-5.9062 0-2.5312 0.77344-4.5039 2.3281-5.9219 1.5625-1.4141 3.7227-2.125 6.4844-2.125 0.80078 0 1.5938 0.074219 2.375 0.21875 0.78125 0.13672 1.5547 0.35156 2.3281 0.64062z"/>
  </symbol>
 </defs>
 <g>
  <path d="m569.74 56.168c-74.141 27.719-113.06 45.305-132.61 55.16-0.11328 0.054687-0.22266 0.16797-0.33594 0.28125-0.16797 0.11328-0.33594 0.22266-0.44922 0.39062-0.11328 0.11328-0.16797 0.28125-0.28125 0.44922-0.11328 0.16797-0.22266 0.33594-0.28125 0.50391-0.054687 0.16797-0.054687 0.39062-0.11328 0.55859 0 0.16797-0.11328 0.28125-0.11328 0.39062 0 3.4141-0.22266 7-0.72656 10.695-0.22266 1.625-0.55859 3.2461-0.95313 4.9297-0.28125-2.2383-0.78516-4.5352-1.6797-6.8867-0.55859-1.625-1.2891-3.0781-2.0156-4.4258 0-0.054688-0.054688-0.054688-0.11328-0.11328-0.39062-0.61719-0.95312-1.0078-1.625-1.2305h-0.16797c-0.28125-0.054688-0.55859-0.11328-0.89453-0.054688-0.22266 0-0.44922 0.11328-0.61719 0.22266-0.16797 0.054688-0.28125 0.054688-0.44922 0.11328-5.6562 3.1914-7.6172 4.7031-7.8398 4.8711-37.457 29.176-63.777 74.426-78.168 134.46-4.3125 6.0469-8.5664 12.152-12.656 18.367l-74.648-74.703 40.656-40.656c1.1211-1.1211 1.1211-2.9102 0-3.9766-6.2148-6.2148-14.504-9.6328-23.297-9.6328h-0.054688c-8.7344 0-16.969 3.4141-23.238 9.6328-0.054688 0.054687-0.11328 0-0.11328 0.054687l-110.88 110.88c-12.879 12.879-12.879 33.824 0 46.703l136.59 136.59-40.711 40.711c-1.1211 1.1211-1.1211 2.9102 0 3.9766 0 0 0.054688 0 0.11328 0.054687 6.4414 6.3828 14.84 9.5742 23.297 9.5742 8.457 0 16.91-3.2461 23.352-9.6328l110.88-110.88c0.054688-0.054687 0-0.054687 0.054688-0.11328 6.2148-6.2148 9.6328-14.449 9.6328-23.238 0-8.793-3.4141-17.078-9.6328-23.297 0 0 0-0.054687-0.054688-0.054687l-49.617-49.672c1.5117-2.1289 3.0234-4.2578 4.5352-6.3828 25.984-9.1289 51.465-20.215 75.824-32.984 24.695-12.938 48.551-27.777 70.953-44.016 0.054687-0.054688 0.054687-0.11328 0.11328-0.16797 0 0 0.054688 0 0.11328-0.054687 0.054688-0.054688 0-0.11328 0.054688-0.11328 0.50391-0.50391 0.78516-1.0625 0.83984-1.7344v-0.22266c0-0.55859-0.11328-1.1758-0.50391-1.6797-0.054687-0.054688-0.11328-0.11328-0.16797-0.16797 0 0 0-0.054687-0.054688-0.054687-2.7422-3.0234-9.6328-10.473-14.672-14.281-3.3594-2.5195-7.2227-4.4805-11.594-5.7695 4.0898 0 8.1211 0.44922 12.152 1.3438 10.922 2.4062 18.984 7.5039 23.801 11.367 0.11328 0.11328 0.28125 0.11328 0.39062 0.22266 0.16797 0.11328 0.28125 0.16797 0.44922 0.22266 0.22266 0.054688 0.39062 0.11328 0.61719 0.11328 0.11328 0 0.22266 0.054687 0.33594 0.054687 0.054687 0 0.054687-0.054687 0.11328-0.054687 0.61719 0 1.1758-0.22266 1.6797-0.67188 0.054687-0.054687 0.11328 0 0.16797-0.054687 16.574-15.121 30.238-31.695 40.656-49.168 5.2656-8.6797 9.9102-18.199 13.887-28.223 0.054687-0.054688 0-0.16797 0.054687-0.22266 0.054688-0.16797 0.054688-0.33594 0.11328-0.55859 0-0.16797 0.054687-0.33594 0-0.55859 0-0.16797-0.054688-0.33594-0.11328-0.50391-0.054687-0.16797-0.11328-0.33594-0.16797-0.50391-0.054688-0.16797-0.16797-0.28125-0.28125-0.44922-0.11328-0.16797-0.22266-0.28125-0.39062-0.39062l-0.16797-0.16797c-4.4805-3.1367-9.6328-5.3203-15.008-6.3281-0.44922-0.11328-0.95313-0.16797-1.3984-0.22266 2.2969-0.67188 4.8164-1.1758 7.5586-1.3984 3.6406-0.28125 7.3359 0 10.977 0.83984 0.11328 0.054688 0.28125 0 0.39062 0 0.22266 0 0.39062 0.054688 0.55859 0 0.16797 0 0.33594-0.054687 0.44922-0.11328 0.16797-0.054687 0.39062-0.11328 0.55859-0.22266 0.16797-0.054688 0.28125-0.22266 0.39062-0.28125 0.16797-0.11328 0.28125-0.22266 0.39063-0.39062 0.11328-0.16797 0.22266-0.33594 0.28125-0.50391 0.054687-0.11328 0.16797-0.22266 0.22266-0.33594 4.4805-13.496 7.6719-28 9.5742-43.121 0.11328-1.0078-0.28125-1.9609-1.0625-2.5742-0.89844-0.67969-1.9062-0.84766-2.8594-0.51172zm-318.86 103.43s0.054688 0 0.11328-0.054687c5.207-5.207 12.039-8.0625 19.375-8.0625h0.054687c6.3281 0 12.266 2.2383 17.078 6.2148l-40.434 40.434s-0.054687 0-0.054687 0.054688c0 0 0 0.054688-0.054688 0.054688l-66.414 66.359c-7.8398-6.5508-17.922-9.0703-27.441-7.2227zm23.801 330.73c-9.6328 9.6875-25.93 10.191-36.457 1.793l38.246-38.246c3.9766 4.8711 6.2148 10.809 6.2148 17.137 0.003906 7.2773-2.8516 14.164-8.0039 19.316zm110.82-149.57c0.054688 0 0 0 0 0 5.207 5.207 8.0078 12.098 8.0078 19.375 0 7.2812-2.8555 14.113-8.0078 19.32 0 0 0 0.054688-0.054687 0.054688l-97.723 97.777c2.0156-10.414-1.0078-21.559-9.0703-29.625l-138.6-138.6c-5.1523-5.1523-8.0078-12.039-8.0078-19.32s2.8555-14.168 8.0078-19.32c10.359-10.359 28.391-10.305 38.695 0 0.55859 0.55859 1.2891 0.83984 2.0156 0.83984s1.457-0.28125 2.0156-0.83984l66.191-66.191 75.543 75.543c-11.145 17.305-21.504 35.281-30.801 53.984-0.11328 0.22266-0.22266 0.50391-0.22266 0.72656l-4.5938 25.09c-0.22266 1.3438 0.50391 2.7422 1.8477 3.1914 0.33594 0.11328 0.61719 0.16797 0.95312 0.16797 1.0078 0 1.9609-0.55859 2.4648-1.457 13.16-24.246 27.383-47.375 42.504-69.551zm-44.91-64.457c-0.39062 0.33594-0.61719 0.72656-0.78516 1.1758-1.793 2.5742-3.5859 5.1523-5.375 7.7852-0.11328 0.054687-0.22266 0.054687-0.28125 0.11328-0.22266 0.22266-0.16797 0.50391-0.28125 0.72656-12.77 18.48-24.922 37.633-36.289 57.625l1.3984-7.7852c27.496-55.16 63.223-104.33 106.23-146.21 24.078-23.406 49.391-42.895 69.777-57.062-13.16 11.199-28.617 24.809-44.352 39.703-32.812 31.02-62.883 65.852-90.043 103.93zm218.68-178.02c-3.3047-0.55859-6.6641-0.78516-9.9688-0.55859-9.6875 0.72656-17.191 4.7031-21.727 7.9531-1.1211 0.78516-1.5117 2.2383-0.95312 3.4727 0.55859 1.2305 1.8477 1.9023 3.1914 1.625 4.2578-0.89453 8.5117-0.95313 12.77-0.16797 3.8086 0.72656 7.4492 2.2383 10.754 4.2578-3.6406 8.9023-7.8398 17.359-12.488 25.145-9.8008 16.406-22.566 31.922-37.969 46.258-5.375-3.9766-13.383-8.625-24.078-10.977-12.039-2.6328-24.641-1.6797-36.512 2.7422-1.3438 0.50391-2.0703 1.9023-1.7344 3.3047 0.33594 1.3984 1.5664 2.3516 3.0234 2.1836 12.879-1.2305 23.016 0.83984 30.07 6.2148 3.6406 2.7422 8.625 7.8945 11.703 11.199-21.391 15.344-44.129 29.457-67.594 41.777-21.617 11.312-44.238 21.281-67.199 29.734 25.594-35 53.594-67.145 84.055-95.984 41.496-39.312 81.145-69.664 81.535-70 1.1758-0.89453 1.457-2.5742 0.67188-3.8086-0.78516-1.2305-2.4648-1.625-3.7539-0.95312-0.55859 0.33594-59.246 32.762-111.78 83.945-18.648 18.145-35.84 37.742-51.742 58.52 14.672-51.91 38.922-91.617 72.352-117.77 0 0 1.2891-0.95312 4.5352-2.8555 0.16797 0.33594 0.33594 0.61719 0.44922 0.95313 4.0312 10.863-1.0078 20.719-2.0703 22.625-0.72656 1.2891-0.33594 2.9102 0.89453 3.7539 0.50391 0.33594 1.0078 0.44922 1.5664 0.44922 0.83984 0 1.6797-0.39062 2.2383-1.1211 6.1602-8.0078 9.8008-16.406 10.922-24.922 0.44922-3.3047 0.55859-6.4961 0.67188-9.6328 19.434-9.7422 56.84-26.543 126.22-52.527-1.7891 12.258-4.5312 24.02-8.0586 35.164z"/>
  <path d="m204.68 297.25c0.83984 0.11328 1.5664-0.28125 2.1289-0.83984 0.55859-0.55859 0.83984-1.3438 0.83984-2.1289l-0.50391-11.145 11.09 0.50391c0.83984 0.054687 1.5664-0.28125 2.1289-0.83984 0.55859-0.55859 0.83984-1.3438 0.83984-2.1289l-0.50391-11.09 11.09 0.50391c0.78516 0.054688 1.5664-0.28125 2.1289-0.83984 0.55859-0.55859 0.83984-1.3438 0.83984-2.1289l-0.44922-11.145 11.145 0.44922c0.78516 0.11328 1.5664-0.28125 2.1289-0.83984 0.55859-0.55859 0.83984-1.3438 0.83984-2.1289l-0.44922-11.199 11.199 0.44922c1.5117 0.054687 2.8555-1.1758 2.9688-2.6875 0.054687-1.5664-1.1758-2.8555-2.7422-2.9688l-14.223-0.55859c-0.78516-0.11328-1.5664 0.28125-2.1289 0.83984-0.55859 0.55859-0.83984 1.3438-0.83984 2.1289l0.44922 11.199-11.145-0.44922c-0.72656-0.054687-1.5664 0.28125-2.1289 0.83984-0.55859 0.55859-0.83984 1.3438-0.83984 2.1289l0.44922 11.145-11.09-0.50391c-0.78516-0.054688-1.5664 0.28125-2.1289 0.83984-0.55859 0.55859-0.83984 1.3438-0.83984 2.1289l0.50391 11.09-11.09-0.50391c-0.78516 0-1.5664 0.28125-2.1289 0.83984-0.55859 0.55859-0.83984 1.3438-0.83984 2.1289l0.50391 11.145-11.09-0.50391c-0.78516-0.054687-1.5664 0.28125-2.1289 0.83984-0.55859 0.55859-0.83984 1.3438-0.83984 2.1289l0.50391 11.09-11.09-0.50391h-0.11328c-1.5117 0-2.7422 1.1758-2.8555 2.6875-0.054687 1.5664 1.1758 2.8555 2.6875 2.9688l14.223 0.61719h0.11328c0.72656 0 1.457-0.28125 2.0156-0.83984s0.83984-1.3438 0.83984-2.1289l-0.50391-11.09z"/>
  <path d="m227.98 320.54c0.83984 0.11328 1.5664-0.28125 2.1289-0.83984 0.55859-0.55859 0.83984-1.3438 0.83984-2.1289l-0.50391-11.145 11.09 0.50391c0.78516 0.11328 1.5664-0.28125 2.1289-0.83984 0.55859-0.55859 0.83984-1.3438 0.83984-2.1289l-0.50391-11.09 11.09 0.50391c0.78516 0.054688 1.5664-0.28125 2.1289-0.83984 0.55859-0.55859 0.83984-1.3438 0.83984-2.1289l-0.44922-11.145 11.145 0.44922c0.78516 0.11328 1.5664-0.28125 2.1289-0.83984 0.55859-0.55859 0.83984-1.3438 0.83984-2.1289l-0.44922-11.199 11.199 0.44922c1.457 0.16797 2.8555-1.1758 2.9688-2.6875 0.054688-1.5664-1.1758-2.8555-2.7422-2.9688l-14.223-0.55859c-0.78516-0.054688-1.5664 0.28125-2.1289 0.83984-0.55859 0.55859-0.83984 1.3438-0.83984 2.1289l0.44922 11.145-11.145-0.44922c-0.78516-0.054687-1.5664 0.28125-2.1289 0.83984-0.55859 0.55859-0.83984 1.3438-0.83984 2.1289l0.44922 11.145-11.09-0.50391c-0.78516-0.054688-1.5664 0.28125-2.1289 0.83984-0.55859 0.55859-0.83984 1.3438-0.83984 2.1289l0.50391 11.09-11.09-0.50391c-0.78516-0.054687-1.5664 0.28125-2.1289 0.83984-0.55859 0.55859-0.83984 1.3438-0.83984 2.1289l0.50391 11.145-11.09-0.50391c-0.72656-0.054688-1.5664 0.28125-2.1289 0.83984-0.55859 0.55859-0.83984 1.3438-0.83984 2.1289l0.50391 11.09-11.09-0.50391c-1.8477-0.28125-2.9102 1.1211-2.9688 2.6875-0.054687 1.5664 1.1758 2.8555 2.6875 2.9688l14.223 0.61719h0.11328c0.72656 0 1.457-0.28125 2.0156-0.83984 0.55859-0.55859 0.83984-1.3438 0.83984-2.1289l-0.50391-11.09z"/>
  <path d="m294.11 302.18c0.55859-0.55859 0.83984-1.3438 0.83984-2.1289l-0.44922-11.199 11.199 0.44922c1.3984 0.11328 2.8555-1.1758 2.9688-2.6875 0.054687-1.5664-1.1758-2.8555-2.7422-2.9688l-14.223-0.55859c-0.78516-0.054687-1.5664 0.28125-2.1289 0.83984-0.55859 0.55859-0.83984 1.3438-0.83984 2.1289l0.44922 11.145-11.148-0.39453c-0.78516-0.054687-1.5664 0.28125-2.1289 0.83984-0.55859 0.55859-0.83984 1.3438-0.83984 2.1289l0.44922 11.145-11.09-0.50391c-0.78516 0-1.5664 0.28125-2.1289 0.83984-0.55859 0.55859-0.83984 1.3438-0.83984 2.1289l0.50391 11.09-11.09-0.50391c-0.78516-0.054688-1.5664 0.28125-2.1289 0.83984-0.55859 0.55859-0.83984 1.3438-0.83984 2.1289l0.50391 11.145-11.09-0.50391c-0.78516-0.054688-1.5664 0.28125-2.1289 0.83984-0.55859 0.55859-0.83984 1.3438-0.83984 2.1289l0.50391 11.09-11.09-0.50391c-1.9023-0.16797-2.9102 1.1211-2.9688 2.6875-0.054687 1.5664 1.1758 2.8555 2.6875 2.9688l14.223 0.61719h0.11328c0.72656 0 1.457-0.28125 2.0156-0.83984 0.55859-0.55859 0.83984-1.3438 0.83984-2.1289l-0.50391-11.09 11.09 0.50391c0.78516 0.11328 1.5664-0.28125 2.1289-0.83984 0.55859-0.55859 0.83984-1.3438 0.83984-2.1289l-0.50391-11.145 11.09 0.50391c0.78516 0.11328 1.5664-0.28125 2.1289-0.83984 0.55859-0.55859 0.83984-1.3438 0.83984-2.1289l-0.50391-11.09 11.09 0.50391c0.78516 0.054687 1.5664-0.28125 2.1289-0.83984 0.55859-0.55859 0.83984-1.3438 0.83984-2.1289l-0.44922-11.145 11.145 0.44922c0.78906 0.10938 1.5742-0.28516 2.0781-0.84375z"/>
  <use x="70" y="644" xlink:href="#u"/>
  <use x="90.550781" y="644" xlink:href="#d"/>
  <use x="104.359375" y="644" xlink:href="#b"/>
  <use x="123.347656" y="644" xlink:href="#c"/>
  <use x="142.242188" y="644" xlink:href="#a"/>
  <use x="155.628906" y="644" xlink:href="#b"/>
  <use x="174.617188" y="644" xlink:href="#l"/>
  <use x="204.410156" y="644" xlink:href="#k"/>
  <use x="224.453125" y="644" xlink:href="#j"/>
  <use x="252.453125" y="644" xlink:href="#c"/>
  <use x="271.34375" y="644" xlink:href="#h"/>
  <use x="280.945312" y="644" xlink:href="#g"/>
  <use x="300.875" y="644" xlink:href="#f"/>
  <use x="320.8125" y="644" xlink:href="#t"/>
  <use x="340.15625" y="644" xlink:href="#i"/>
  <use x="369.332031" y="644" xlink:href="#f"/>
  <use x="389.265625" y="644" xlink:href="#a"/>
  <use x="402.648438" y="644" xlink:href="#a"/>
  <use x="416.035156" y="644" xlink:href="#c"/>
  <use x="434.929688" y="644" xlink:href="#s"/>
  <use x="454.972656" y="644" xlink:href="#h"/>
  <use x="464.570312" y="644" xlink:href="#g"/>
  <use x="70" y="672" xlink:href="#r"/>
  <use x="82.183594" y="672" xlink:href="#d"/>
  <use x="95.992188" y="672" xlink:href="#e"/>
  <use x="115.226562" y="672" xlink:href="#i"/>
  <use x="154.152344" y="672" xlink:href="#a"/>
  <use x="167.535156" y="672" xlink:href="#q"/>
  <use x="187.46875" y="672" xlink:href="#b"/>
  <use x="216.207031" y="672" xlink:href="#p"/>
  <use x="239.640625" y="672" xlink:href="#e"/>
  <use x="258.878906" y="672" xlink:href="#f"/>
  <use x="278.8125" y="672" xlink:href="#g"/>
  <use x="308.492188" y="672" xlink:href="#o"/>
  <use x="329.015625" y="672" xlink:href="#d"/>
  <use x="342.820312" y="672" xlink:href="#e"/>
  <use x="362.058594" y="672" xlink:href="#n"/>
  <use x="371.65625" y="672" xlink:href="#b"/>
  <use x="390.648438" y="672" xlink:href="#m"/>
  <use x="407.242188" y="672" xlink:href="#a"/>
 </g>
</svg>
